<?xml version="1.0" encoding="UTF-8"?>
<svg viewBox="0 0 541.6 78" xmlns="http://www.w3.org/2000/svg">
<g>
<title>background</title>
</g>
<g>
<title>Layer 1</title>
<g fill="#33CD99">
<path d="m14.2 33l18.8-18.8-14.2-14.1s-5.4-1.1-12.6 6.1-6.1 12.6-6.1 12.6l14.1 14.2z"/>
<path d="m39 57.8l13.7-13.7 5.1-5.1 20.2-20.2s1.1-5.4-6.1-12.6c-7.3-7.2-12.7-6.1-12.7-6.1l-25.3 25.2-28.9 28.9-5 23.8 23.8-5.1 15.2-15.1zm-16.6 12.3l-8.1 1.7c-0.8-1.5-1.7-2.9-3.5-4.7-1.7-1.7-3.2-2.7-4.7-3.5l1.8-8.1 2.3-2.3s4.4 0.1 9.4 5.1 5.1 9.4 5.1 9.4l-2.3 2.4z"/>
<path d="m72.9 54.2l-9.5-9.5-18.7 18.8 9.5 9.5 23.8 5-5.1-23.8zm-5.7 13c-1.7 1.7-2.7 3.2-3.5 4.7l-8.1-1.8-2.3-2.3s0.1-4.4 5.1-9.4 9.4-5.1 9.4-5.1l2.3 2.3 1.7 8.1c-1.4 0.8-2.9 1.7-4.6 3.5z"/>
</g>
<text transform="matrix(4.8912 0 0 2.6354 -546.33 31.28)" x="129.799988" y="11.5" fill="#ffffff" font-family="Helvetica, Arial, sans-serif" font-size="24" stroke="#000" stroke-opacity="null" stroke-width="0" xml:space="preserve">NoteCIC</text>
</g>
</svg>
